<svg height="452pt" viewBox="0 -1 452.4 452" width="452pt" xmlns="http://www.w3.org/2000/svg"><path d="m423.800781 56.898438h-63.199219v-26.699219c-.050781-16.546875-13.453124-29.949219-30-30h-208.800781c-16.550781.050781-29.953125 13.453125-30 30v26.699219h-63.199219c-15.796874 0-28.60546825 12.804687-28.601562 28.601562v267.898438c-.00390625 15.796874 12.804688 28.605468 28.601562 28.601562h123.597657l-13.097657 47.199219h-27.300781c-5.523437 0-10 4.476562-10 10 0 5.523437 4.476563 10 10 10h228.699219c5.523438 0 10-4.476563 10-10 0-5.523438-4.476562-10-10-10h-27.300781l-13-47.199219h123.601562c15.796875.003906 28.601563-12.804688 28.597657-28.601562v-267.898438c.003906-15.796875-12.800782-28.601562-28.597657-28.601562zm0 20c4.734375.035156 8.5625 3.867187 8.597657 8.601562v204.800781h-71.796876v-213.402343zm-302-56.699219h208.800781c5.515626.015625 9.984376 4.484375 10 10v260.101562h-228.800781v-260.101562c.015625-5.515625 4.484375-9.984375 10-10zm-93.199219 56.699219h63.199219v213.402343h-71.800781v-204.800781c-.015625-2.285156.882812-4.484375 2.5-6.101562 1.617188-1.613282 3.8125-2.515626 6.101562-2.5zm263.898438 352.300781h-132.601562l13.101562-47.199219h106.5zm131.300781-67.199219h-395.199219c-4.738281-.035156-8.566406-3.863281-8.601562-8.601562v-43.097657h412.5v43.097657c-.082031 4.753906-3.945312 8.574218-8.699219 8.601562zm0 0"/><path d="m144.398438 268.300781h159.300781c5.523437 0 10-4.476562 10-10 0-5.523437-4.476563-10-10-10h-159.300781c-5.519532 0-10 4.476563-10 10 0 5.523438 4.480468 10 10 10zm0 0"/><path d="m174.699219 204.601562c0 13.859376 11.238281 25.097657 25.101562 25.097657s25.097657-11.238281 25.097657-25.097657c0-13.863281-11.234376-25.101562-25.097657-25.101562-13.859375.007812-25.09375 11.242188-25.101562 25.101562zm30.101562 0c0 2.816407-2.285156 5.097657-5.101562 5.097657-2.816407 0-5.097657-2.28125-5.097657-5.097657 0-2.816406 2.28125-5.101562 5.097657-5.101562 2.796875.046875 5.054687 2.304688 5.101562 5.101562zm0 0"/><path d="m278.601562 179.601562c-13.863281 0-25.101562 11.234376-25.101562 25.097657s11.238281 25.101562 25.101562 25.101562c13.859376 0 25.097657-11.238281 25.097657-25.101562-.007813-13.859375-11.242188-25.089844-25.097657-25.097657zm0 30.097657c-2.816406 0-5.101562-2.28125-5.101562-5.097657 0-2.816406 2.285156-5.101562 5.101562-5.101562 2.816407 0 5.097657 2.285156 5.097657 5.101562-.011719 2.808594-2.289063 5.085938-5.097657 5.097657zm0 0"/><path d="m148.300781 61.699219h6.300781c4.09375.019531 7.585938 2.96875 8.296876 7l14.800781 87.199219c2.277343 13.6875 14.125 23.714843 28 23.703124h84.199219c5.523437 0 10-4.480468 10-10 0-5.523437-4.476563-10-10-10h-84.199219c-4.003907.007813-7.464844-2.785156-8.300781-6.703124h75.203124c12.425782.054687 23.429688-8.023438 27.097657-19.898438l13.800781-43.699219c.980469-3.035156.421875-6.355469-1.5-8.902343-1.917969-2.546876-4.910156-4.0625-8.101562-4.097657h-119.398438l-1.800781-10.800781c-2.308594-13.726562-14.179688-23.78125-28.097657-23.800781h-6.300781c-5.523437 0-10 4.476562-10 10 0 5.523437 4.476563 10 10 10zm142.097657 34.5-9.699219 30.699219c-1.128907 3.519531-4.402344 5.90625-8.097657 5.902343h-78.601562l-6.199219-36.601562zm0 0"/></svg>