<svg height="480pt" viewBox="0 -16 480 480" width="480pt" xmlns="http://www.w3.org/2000/svg"><path d="m456 0h-432c-13.253906 0-24 10.746094-24 24v304c0 13.253906 10.746094 24 24 24h142.9375l-6 48h-8.9375c-4.417969 0-8 3.582031-8 8v24h-32v16h256v-16h-32v-24c0-4.417969-3.582031-8-8-8h-8.9375l-6-48h142.9375c13.253906 0 24-10.746094 24-24v-304c0-13.253906-10.746094-24-24-24zm-432 16h432c4.417969 0 8 3.582031 8 8v248h-448v-248c0-4.417969 3.582031-8 8-8zm296 416h-160v-16h160zm-17.0625-32h-125.875l6-48h113.875zm153.0625-64h-432c-4.417969 0-8-3.582031-8-8v-40h448v40c0 4.417969-3.582031 8-8 8zm0 0"/><path d="m400 304h32v16h-32zm0 0"/><path d="m64 88h64v16h-64zm0 0"/><path d="m80 120h48v16h-48zm0 0"/><path d="m96 152h32v16h-32zm0 0"/><path d="m48 152h32v16h-32zm0 0"/><path d="m64 184h64v16h-64zm0 0"/><path d="m48 120h16v16h-16zm0 0"/><path d="m32 88h16v16h-16zm0 0"/><path d="m32 184h16v16h-16zm0 0"/><path d="m160 224h224c4.25.019531 8.332031-1.65625 11.335938-4.664062 3.007812-3.003907 4.683593-7.085938 4.664062-11.335938v-128c.015625-4.246094-1.664062-8.328125-4.667969-11.332031-3.003906-3.003907-7.085937-4.683594-11.332031-4.667969h-224c-4.246094-.011719-8.324219 1.667969-11.328125 4.671875s-4.683594 7.082031-4.671875 11.328125v128c.058594 4.347656 1.816406 8.503906 4.902344 11.566406 2.996094 2.847656 6.96875 4.433594 11.097656 4.433594zm99.632812-78.113281c7.601563 4.59375 17.125 4.59375 24.726563 0l12.671875-7.597657 74.671875 69.710938h-199.40625l74.671875-69.710938zm51.679688-16.160157 72.6875-43.613281v111.488281zm-35.199219 2.457032c-2.53125 1.515625-5.695312 1.515625-8.226562 0l-86.984375-52.183594h182.21875zm-43.417969-2.457032-72.695312 67.875v-111.488281zm0 0"/></svg>