<svg height="496pt" viewBox="0 0 496 496" width="496pt" xmlns="http://www.w3.org/2000/svg"><path d="m428.878906 417.566406c43.289063-46.132812 67.121094-106.09375 67.121094-169.566406 0-65.503906-25.566406-125.113281-67.199219-169.488281l16.917969-16.917969c3.128906 1.503906 6.585938 2.40625 10.28125 2.40625 13.230469 0 24-10.769531 24-24s-10.769531-24-24-24-24 10.769531-24 24c0 3.695312.902344 7.152344 2.40625 10.28125l-16.917969 16.917969c-44.375-41.632813-103.984375-67.199219-169.488281-67.199219-48.183594 0-94.769531 13.871094-134.960938 40h-81.039062c-17.648438 0-32 14.351562-32 32v352c0 17.648438 14.351562 32 32 32h80.9375c40.199219 26.160156 86.886719 40 135.0625 40 47.625 0 93.671875-13.585938 133.550781-39.136719l30.160157 30.160157c5.792968 5.792968 13.480468 8.976562 21.65625 8.976562 16.898437 0 30.632812-13.734375 30.632812-30.632812 0-8.175782-3.183594-15.871094-8.976562-21.65625zm27.121094-385.566406c4.40625 0 8 3.59375 8 8s-3.59375 8-8 8-8-3.59375-8-8 3.59375-8 8-8zm-208-16c61.089844 0 116.703125 23.777344 158.183594 62.503906l-19.894532 19.894532c-3.136718-1.496094-6.59375-2.398438-10.289062-2.398438-5.191406 0-9.96875 1.695312-13.894531 4.503906l-43.066407-30.144531c.5625-2.039063.960938-4.144531.960938-6.359375 0-13.230469-10.769531-24-24-24s-24 10.769531-24 24 10.769531 24 24 24c5.191406 0 9.96875-1.695312 13.894531-4.503906l43.066407 30.144531c-.5625 2.039063-.960938 4.144531-.960938 6.359375 0 13.230469 10.769531 24 24 24s24-10.769531 24-24c0-3.695312-.902344-7.152344-2.40625-10.28125l19.894531-19.894531c38.734375 41.472656 62.511719 97.085937 62.511719 158.175781 0 59.199219-22.167969 115.144531-62.441406 158.246094l-52.152344-52.148438c10.410156-17.167968 16.875-36.921875 18.1875-58.097656h80.40625v-16h-16v-128h-48v128h-16v-80h-48v80h-16v-128h-48v9.113281c-5.304688-.65625-10.640625-1.113281-16-1.113281v-88c0-17.648438-14.351562-32-32-32h-78.609375c31.753906-15.695312 66.6875-24 102.609375-24zm136 104c0 4.40625-3.59375 8-8 8s-8-3.59375-8-8 3.59375-8 8-8 8 3.59375 8 8zm-80-56c0 4.40625-3.59375 8-8 8s-8-3.59375-8-8 3.59375-8 8-8 8 3.59375 8 8zm-175.59375 232h-80.40625v-80h102.257812c-14.027343 20.527344-22.257812 45.320312-22.257812 72 0 2.703125.238281 5.34375.40625 8zm127.59375-120c5.367188 0 10.703125.519531 16 1.273438v16.109374c-5.273438-.878906-10.617188-1.382812-16-1.382812-52.9375 0-96 43.0625-96 96s43.0625 96 96 96c50.230469 0 91.503906-38.808594 95.59375-88h16c-4.128906 58.023438-52.539062 104-111.59375 104-61.761719 0-112-50.238281-112-112s50.238281-112 112-112zm79.59375 120c-4.027344 40.367188-38.1875 72-79.59375 72-44.113281 0-80-35.886719-80-80s35.886719-80 80-80c5.40625 0 10.742188.726562 16 1.792969v70.207031h-16v16zm-47.59375-16v-112h16v112zm64 0v-64h16v64zm64 0v-112h16v112zm-400-208c0-8.824219 7.175781-16 16-16h192c8.824219 0 16 7.175781 16 16v32h-224zm0 48h224v41.113281c-30.046875 3.773438-56.847656 17.964844-76.710938 38.886719h-131.289062v112h98.335938c1.039062 5.464844 2.441406 10.800781 4.152343 16h-102.488281v16h109.078125c5.777344 11.792969 13.265625 22.574219 22.210937 32h-147.289062zm16 320c-8.824219 0-16-7.175781-16-16v-32h165.664062c16.871094 12.097656 36.761719 20.183594 58.335938 22.886719v9.113281c0 8.824219-7.175781 16-16 16zm216 40c-35.878906 0-70.824219-8.320312-102.566406-24h78.566406c17.648438 0 32-14.351562 32-32v-8c24.199219 0 46.769531-6.871094 66.097656-18.59375l47.832032 47.832031c-36.609376 22.671875-78.554688 34.761719-121.929688 34.761719zm185.367188 0c-3.902344 0-7.574219-1.519531-10.34375-4.289062l-87.550782-87.550782c7.664063-6.089844 14.589844-13.023437 20.6875-20.6875l87.558594 87.558594c2.761719 2.761719 4.28125 6.433594 4.28125 10.335938 0 8.074218-6.558594 14.632812-14.632812 14.632812zm0 0"/><path d="m88 408h80v16h-80zm0 0"/><path d="m32 136h16v16h-16zm0 0"/><path d="m64 136h16v16h-16zm0 0"/><path d="m96 136h16v16h-16zm0 0"/><path d="m128 136h96v16h-96zm0 0"/><path d="m32 168h96v16h-96zm0 0"/><path d="m144 168h16v16h-16zm0 0"/></svg>